<?xml version="1.0" standalone="no"?>
<!DOCTYPE svg PUBLIC "-//W3C//DTD SVG 20010904//EN"
 "http://www.w3.org/TR/2001/REC-SVG-20010904/DTD/svg10.dtd">
<svg version="1.0" xmlns="http://www.w3.org/2000/svg"
 width="1280.000000pt" height="990.000000pt" viewBox="0 0 1280.000000 990.000000"
 preserveAspectRatio="xMidYMid meet">
<g transform="translate(0.000000,990.000000) scale(0.100000,-0.100000)"
fill="#000000" stroke="none">
<path d="M5775 9451 c-16 -3 -29 -9 -27 -13 1 -5 5 -15 9 -23 10 -28 -56 -61
-71 -36 -10 16 -45 0 -66 -29 -23 -33 -11 -43 33 -27 15 5 37 7 48 4 15 -4 23
0 26 14 6 20 23 27 23 8 0 -6 17 -9 43 -7 39 3 42 5 40 30 -2 32 14 39 71 32
37 -6 45 -11 56 -39 9 -23 21 -35 39 -38 33 -7 41 1 19 17 -10 7 -19 24 -20
37 -3 22 1 24 37 24 42 0 45 -5 34 -60 -4 -18 2 -20 58 -23 43 -2 69 2 85 12
25 17 41 11 51 -18 10 -25 -10 -46 -43 -46 -19 0 -29 -6 -33 -20 -3 -13 -14
-20 -30 -20 -14 0 -29 -4 -32 -10 -3 -5 -24 -10 -45 -10 -30 0 -42 5 -51 21
-11 21 -11 21 -41 -12 -29 -32 -31 -32 -44 -14 -14 18 -15 18 -44 2 -29 -17
-29 -17 -46 8 -18 27 -34 25 -34 -6 0 -12 -7 -19 -20 -19 -10 0 -24 -9 -30
-20 -13 -25 -39 -26 -55 -3 -11 15 -17 15 -40 5 -17 -8 -32 -9 -43 -3 -10 6
-23 6 -34 0 -21 -11 -38 -4 -38 15 0 7 -9 25 -21 40 -11 14 -16 26 -10 26 6 0
11 11 11 24 0 17 7 26 25 30 32 8 32 19 -1 36 -22 12 -27 12 -34 0 -7 -11 -12
-12 -21 -3 -15 15 -3 33 22 33 10 0 19 5 19 10 0 11 -4 12 -74 15 -34 2 -54 9
-63 20 -10 15 -15 16 -28 5 -8 -7 -15 -19 -15 -26 0 -8 -6 -14 -14 -14 -7 0
-26 -7 -42 -15 -21 -11 -31 -11 -42 -3 -11 10 -16 8 -23 -5 -12 -20 -33 -23
-26 -3 6 16 -19 30 -35 20 -5 -3 -7 -13 -4 -21 7 -17 -10 -43 -26 -43 -6 0 -7
11 -4 25 5 18 2 25 -9 25 -15 0 -19 -10 -16 -42 3 -21 -11 -23 -39 -6 -18 11
-23 9 -45 -17 -24 -29 -25 -29 -40 -11 -15 19 -15 19 -15 -2 0 -13 -8 -26 -17
-29 -10 -4 -23 -13 -29 -21 -14 -19 -37 -6 -29 17 3 11 -3 28 -15 42 -19 23
-21 23 -34 7 -7 -10 -25 -18 -40 -18 -14 0 -26 -5 -26 -11 0 -10 -49 -7 -69 6
-6 3 -23 -6 -38 -22 -16 -15 -36 -26 -46 -25 -9 2 -20 -4 -23 -12 -3 -9 -17
-16 -29 -16 -13 0 -27 -5 -30 -11 -5 -7 -14 -4 -26 7 -18 16 -19 16 -19 -9 0
-28 -14 -37 -23 -14 -4 8 -8 9 -14 1 -4 -6 -16 -13 -26 -17 -19 -7 -33 -34
-23 -44 3 -3 25 2 48 13 59 26 219 28 226 2 6 -24 7 -23 106 16 68 28 96 34
148 33 43 -1 63 -6 62 -14 -3 -34 -4 -36 -18 -24 -14 12 -46 5 -46 -9 0 -4 -9
-10 -20 -13 -14 -3 -20 -14 -20 -31 0 -33 -38 -50 -92 -43 -21 3 -38 1 -38 -4
0 -6 -8 -9 -17 -7 -13 2 -19 -5 -21 -22 -8 -53 -41 -60 -110 -24 -15 8 -35 14
-45 14 -18 0 -73 -50 -93 -86 -11 -18 -12 -18 -31 -1 -21 18 -33 14 -33 -14 0
-25 -27 -31 -62 -13 -32 17 -43 12 -50 -21 -2 -11 -10 -19 -16 -17 -15 3 -124
-47 -133 -61 -4 -5 -13 -7 -20 -5 -8 3 10 22 43 47 31 23 64 54 74 69 13 20
14 24 2 15 -8 -7 -27 -14 -42 -15 -17 -2 -26 -8 -26 -20 0 -11 -7 -18 -19 -18
-10 0 -21 -7 -25 -15 -7 -20 -33 -19 -44 1 -15 26 -34 6 -27 -27 4 -17 2 -29
-4 -29 -6 0 -20 -10 -31 -22 -21 -22 -22 -22 -35 -4 -10 14 -28 18 -72 20 -53
1 -58 -1 -61 -22 -4 -25 -26 -36 -89 -45 -47 -6 -51 -3 -27 21 13 12 14 17 4
20 -7 3 -20 -5 -29 -17 -13 -17 -26 -21 -64 -20 -35 2 -53 -3 -70 -18 -12 -11
-31 -26 -42 -32 -18 -11 -18 -11 5 -5 39 11 63 10 67 -3 3 -7 -3 -13 -11 -13
-9 0 -24 -9 -33 -20 -10 -11 -25 -20 -35 -20 -9 0 -21 -7 -26 -16 -6 -11 -17
-15 -31 -11 -17 4 -25 -1 -33 -19 -11 -23 -80 -64 -109 -64 -22 0 -99 -71 -99
-92 0 -12 -7 -18 -22 -18 -15 0 -31 -12 -45 -35 -19 -29 -20 -33 -5 -28 9 3
34 19 54 34 20 16 40 29 45 29 4 0 23 16 42 35 49 51 114 80 123 55 2 -5 21
-12 43 -15 36 -6 45 -2 86 33 26 21 68 46 93 56 25 10 46 22 46 27 0 16 -29
22 -45 9 -8 -6 -23 -9 -33 -6 -11 4 -24 0 -32 -9 -18 -21 -40 -19 -40 5 0 13
10 24 25 30 14 5 25 14 25 19 0 14 29 22 95 28 79 7 96 7 121 -2 14 -4 27 -1
37 9 23 23 65 37 73 25 8 -13 -24 -49 -44 -49 -21 0 -62 -47 -68 -80 -6 -25
-10 -28 -67 -34 -63 -6 -97 -28 -97 -62 0 -8 -9 -14 -20 -14 -10 0 -24 -9 -30
-21 -7 -12 -18 -18 -26 -15 -8 3 -14 1 -14 -5 0 -7 -12 -8 -30 -4 -23 5 -30 3
-30 -8 0 -15 -29 -27 -69 -27 -19 0 -23 -4 -19 -25 6 -30 -11 -48 -32 -35 -23
14 -30 12 -30 -9 0 -27 -42 -71 -68 -71 -15 0 -19 -5 -15 -20 4 -15 0 -20 -16
-20 -11 0 -21 4 -21 8 0 11 30 68 67 127 18 27 29 53 27 57 -7 11 -34 10 -34
-1 0 -6 -13 -18 -30 -28 -19 -11 -30 -26 -30 -39 0 -12 -7 -27 -16 -35 -16
-13 -23 -11 -106 32 -14 7 -18 5 -18 -9 0 -10 -9 -28 -20 -40 -11 -12 -20 -28
-20 -37 0 -18 2 -18 35 -3 18 8 24 17 19 30 -3 12 1 20 12 25 10 4 19 2 22 -5
2 -7 11 -12 20 -12 12 0 17 -9 18 -30 1 -26 -2 -30 -18 -24 -18 5 -19 3 -13
-25 6 -26 4 -31 -13 -31 -13 0 -19 -6 -18 -17 1 -13 -5 -17 -21 -16 -15 2 -23
-3 -23 -12 0 -8 -9 -15 -20 -15 -11 0 -23 -6 -26 -14 -8 -22 -51 -47 -68 -40
-22 9 -20 30 5 48 12 8 30 27 40 43 10 15 24 36 31 45 10 14 9 20 -5 35 -10
12 -14 27 -10 41 4 16 1 22 -11 22 -9 0 -16 -4 -16 -10 0 -5 -9 -10 -19 -10
-11 0 -26 -7 -35 -15 -8 -8 -20 -15 -27 -15 -16 0 -38 -30 -39 -52 0 -25 9
-22 32 7 23 29 38 32 38 7 0 -25 -80 -85 -96 -71 -19 15 -24 -3 -8 -26 15 -20
15 -20 56 2 49 27 65 21 40 -15 -10 -15 -25 -44 -35 -64 -18 -40 -40 -49 -55
-22 -11 20 -32 10 -32 -15 0 -24 -45 -61 -75 -61 -14 0 -25 3 -25 7 0 4 19 27
42 50 39 39 40 43 19 43 -26 0 -81 -47 -81 -70 0 -16 -55 -70 -71 -70 -5 0 -9
-5 -9 -11 0 -6 -7 -27 -17 -46 -12 -26 -13 -37 -4 -42 15 -10 -4 -27 -34 -33
-15 -2 -20 -12 -21 -40 -1 -23 3 -39 12 -42 8 -3 14 -20 14 -42 0 -29 3 -35
16 -30 19 7 44 -10 44 -30 0 -7 -16 -16 -37 -20 -48 -8 -63 -20 -63 -51 0 -31
-31 -28 -45 5 -9 20 -22 26 -42 20 -4 -2 -6 -13 -5 -25 2 -13 -1 -23 -6 -23
-5 0 -13 -14 -18 -32 -11 -39 -57 -66 -120 -72 -26 -3 -49 -7 -52 -11 -10 -9
-9 -44 1 -38 5 3 7 -5 5 -18 -2 -16 -12 -25 -36 -31 -26 -7 -31 -12 -23 -26
12 -23 11 -74 -1 -89 -6 -7 -7 -13 -3 -13 5 0 1 -8 -8 -17 -8 -10 -19 -31 -23
-48 -7 -27 -6 -29 9 -16 14 11 20 11 32 1 9 -7 14 -19 11 -26 -8 -21 9 -25 32
-8 29 20 29 54 1 54 -20 0 -21 4 -16 56 3 31 12 63 20 73 8 9 17 25 19 36 2
11 12 21 23 24 11 2 25 10 31 19 9 13 12 10 16 -17 4 -28 1 -34 -20 -42 -19
-7 -23 -14 -18 -33 5 -19 1 -26 -14 -31 -19 -6 -38 -50 -27 -61 7 -7 67 35 85
59 16 20 48 23 55 3 7 -19 -1 -26 -30 -26 -19 0 -23 -4 -18 -18 3 -11 -1 -32
-9 -48 -9 -15 -13 -38 -10 -51 5 -17 -3 -31 -27 -56 -58 -56 -69 -75 -65 -109
5 -45 -2 -58 -32 -58 -24 0 -24 1 -9 18 10 10 17 24 17 30 0 14 -33 24 -54 16
-13 -5 -15 -1 -10 27 6 30 5 32 -9 19 -24 -24 -31 -60 -13 -60 21 0 22 -73 1
-90 -8 -7 -12 -16 -9 -22 3 -5 -2 -21 -11 -35 -17 -25 -16 -26 10 -47 27 -22
27 -23 9 -41 -11 -10 -17 -29 -16 -42 2 -13 -1 -29 -6 -36 -5 -7 -7 -30 -4
-51 5 -39 5 -39 18 -15 7 13 13 34 14 45 0 12 9 33 20 47 11 14 20 34 20 44 0
20 26 63 39 63 10 0 1 -73 -12 -89 -7 -7 -10 -26 -9 -42 3 -21 -1 -29 -12 -29
-21 0 -20 -28 0 -51 15 -16 14 -19 -5 -31 -26 -16 -26 -22 0 -47 24 -22 19
-27 -43 -36 -39 -6 -49 -4 -54 9 -10 27 -35 20 -28 -8 4 -17 -1 -30 -17 -45
-13 -11 -27 -21 -32 -21 -11 0 1 70 14 86 11 13 19 264 8 264 -3 0 -12 -7 -19
-15 -10 -12 -10 -18 0 -30 7 -9 8 -15 2 -15 -5 0 -8 -9 -5 -20 4 -14 0 -20
-12 -20 -13 0 -16 6 -12 21 4 15 2 19 -10 15 -26 -10 -35 4 -18 30 15 23 14
24 -5 24 -11 0 -20 -7 -20 -15 0 -7 -7 -18 -16 -23 -25 -14 -13 -48 14 -44 18
3 22 -1 20 -15 -2 -13 4 -19 25 -21 34 -4 37 -33 5 -54 -21 -14 -22 -17 -9
-41 13 -25 12 -28 -17 -55 -33 -31 -96 -50 -107 -32 -7 11 -45 14 -45 4 0 -3
11 -15 25 -26 19 -15 23 -23 15 -33 -7 -9 -6 -16 4 -24 12 -10 15 -8 18 11 2
16 10 23 24 23 12 1 29 7 38 14 19 16 21 14 30 -15 8 -27 -16 -48 -44 -39 -15
5 -22 1 -30 -19 -11 -29 -30 -35 -30 -10 0 20 -24 13 -28 -9 -4 -20 33 -62 46
-53 6 3 13 20 17 36 7 30 28 40 40 20 10 -16 35 8 35 31 0 11 5 19 11 19 6 0
9 -9 6 -20 -3 -10 1 -24 9 -31 8 -6 14 -21 14 -33 1 -26 45 -60 70 -53 22 6
37 -26 23 -46 -5 -7 -8 -25 -7 -42 1 -16 -6 -35 -14 -41 -10 -7 -13 -22 -10
-42 5 -36 -12 -47 -56 -36 -23 5 -26 11 -26 49 0 35 -6 49 -30 73 -27 27 -29
34 -23 81 4 32 2 51 -4 51 -20 0 -32 -27 -39 -83 -6 -47 -10 -57 -25 -57 -24
0 -26 -45 -3 -54 8 -3 13 -10 10 -15 -7 -11 -54 10 -58 26 -2 8 -8 8 -22 -2
-15 -12 -17 -17 -7 -29 7 -8 10 -20 7 -25 -4 -5 -2 -12 4 -16 5 -3 10 -1 10 4
0 15 47 14 53 -1 3 -8 7 -6 12 7 21 62 24 66 43 56 30 -16 25 -106 -7 -130
-15 -11 -22 -24 -18 -34 5 -13 -25 -57 -40 -57 -3 0 -3 30 0 66 6 58 5 65 -9
53 -8 -7 -13 -18 -10 -25 8 -20 -24 -74 -50 -86 -13 -6 -24 -15 -24 -20 0 -4
-9 -8 -20 -8 -16 0 -18 -4 -11 -22 7 -20 16 -23 57 -23 27 0 56 4 65 9 20 11
69 -33 69 -63 0 -39 18 -22 30 29 7 28 16 50 21 50 5 0 7 -11 3 -25 -3 -14 -1
-32 6 -39 6 -8 10 -30 8 -48 -2 -24 -10 -36 -31 -46 -29 -14 -28 -32 3 -32 26
0 34 -17 13 -29 -14 -8 -16 -14 -7 -28 9 -14 5 -27 -18 -66 -22 -38 -26 -52
-18 -67 8 -15 6 -30 -9 -60 -10 -22 -17 -49 -14 -61 5 -17 2 -20 -13 -17 -31
6 -46 47 -40 115 6 67 0 78 -34 65 -19 -7 -20 -10 -7 -20 16 -14 12 -44 -9
-76 -12 -17 -10 -22 12 -43 20 -19 25 -30 20 -51 -3 -15 -8 -36 -10 -48 -1
-11 -7 -27 -12 -35 -5 -8 -9 -23 -9 -33 0 -11 -4 -21 -10 -23 -12 -3 -45 73
-45 103 0 18 -5 20 -26 16 -20 -4 -25 -1 -22 9 3 8 14 15 26 17 28 4 28 28 1
43 -18 9 -24 8 -31 -5 -11 -20 -38 -21 -38 -1 0 16 -16 20 -24 6 -3 -5 10 -25
30 -45 34 -34 36 -39 24 -60 -16 -31 -4 -55 15 -29 7 10 16 15 20 11 12 -11
-6 -68 -21 -68 -10 0 -13 -7 -8 -25 7 -28 -7 -33 -26 -10 -18 22 -32 18 -20
-6 8 -14 8 -24 1 -33 -6 -6 -8 -21 -5 -33 3 -11 -1 -27 -11 -37 -19 -18 -8
-26 34 -23 21 2 26 -4 34 -36 7 -28 5 -46 -6 -70 -23 -48 -32 -138 -16 -148
19 -12 29 -1 29 30 0 29 21 57 33 44 4 -3 7 -17 7 -29 0 -12 11 -31 24 -42 14
-10 28 -32 32 -48 4 -16 11 -35 16 -41 6 -7 7 -24 4 -37 -3 -13 -2 -26 4 -28
6 -2 6 -15 1 -33 -6 -25 -4 -34 17 -53 19 -19 27 -21 33 -10 4 7 5 24 2 37 -4
17 -2 22 6 17 6 -4 11 -16 11 -26 0 -10 4 -21 10 -25 17 -11 31 -78 17 -87
-25 -16 -57 -8 -69 17 -6 14 -15 25 -20 25 -5 0 -7 -4 -3 -9 3 -5 1 -12 -4
-15 -14 -9 -45 105 -43 164 l1 55 -52 0 c-47 0 -52 -2 -54 -23 -1 -18 3 -21
18 -17 13 4 19 2 19 -8 0 -9 -3 -17 -7 -20 -5 -2 -3 -3 3 -1 6 1 17 -1 24 -6
18 -11 5 -41 -15 -34 -8 4 -22 1 -30 -6 -13 -11 -13 -15 0 -33 8 -12 15 -29
15 -39 0 -10 6 -16 13 -14 53 17 67 16 67 -4 0 -28 23 -100 32 -100 5 0 8 7 8
15 0 36 18 10 29 -42 20 -88 21 -90 31 -74 12 20 38 6 46 -24 9 -38 -1 -54
-32 -51 -30 3 -47 26 -19 26 9 0 13 5 10 10 -4 6 -10 8 -14 5 -14 -8 -39 28
-46 67 -6 33 -9 36 -26 25 -23 -14 -24 -33 -3 -45 12 -7 15 -19 12 -48 -3 -27
0 -42 10 -50 20 -14 22 -63 5 -90 -7 -11 -10 -24 -6 -27 15 -16 35 -5 49 28 8
19 16 35 19 35 7 0 59 -103 61 -120 0 -8 2 -25 3 -36 0 -13 10 -24 21 -27 17
-4 19 -11 14 -31 -6 -26 6 -75 35 -141 34 -75 41 -96 41 -124 0 -34 21 -54 52
-49 29 4 33 43 4 43 -10 0 -22 10 -27 23 -8 21 -7 22 45 18 38 -2 60 -10 75
-25 25 -25 27 -67 5 -92 -14 -16 -14 -18 5 -29 15 -8 21 -20 21 -45 0 -18 -5
-37 -10 -40 -16 -10 -12 -22 11 -28 20 -5 20 -7 4 -31 -10 -14 -21 -26 -25
-26 -11 0 -38 44 -46 74 -5 20 -3 26 11 26 12 0 15 5 10 18 -4 9 -10 26 -12
37 -5 22 -52 63 -49 42 1 -6 5 -18 9 -24 5 -7 4 -13 -2 -13 -5 0 -11 4 -13 10
-5 14 -48 0 -48 -16 0 -8 10 -18 23 -23 18 -7 22 -17 24 -57 1 -27 3 -57 4
-66 3 -21 39 -57 39 -39 0 7 8 6 25 -5 14 -9 25 -22 25 -29 0 -7 7 -16 16 -19
8 -3 13 -10 9 -15 -6 -11 37 -61 54 -61 6 0 11 2 11 5 0 14 -33 67 -60 96 -35
39 -37 49 -10 49 11 0 20 -7 20 -15 0 -8 7 -15 15 -15 8 0 15 -6 15 -14 0 -8
14 -19 31 -25 21 -7 29 -15 26 -26 -4 -8 0 -18 7 -22 7 -5 15 -16 19 -25 7
-19 27 -25 27 -9 0 5 -21 54 -47 108 -42 87 -48 106 -49 171 -2 77 5 87 32 47
9 -14 24 -25 34 -25 21 0 45 -27 53 -60 5 -18 0 -32 -20 -52 -15 -15 -25 -29
-22 -30 2 -2 18 -10 34 -19 22 -11 29 -21 27 -37 -2 -12 2 -22 7 -22 6 0 11
-6 11 -14 0 -7 6 -24 13 -37 30 -57 50 -79 72 -79 18 0 25 -7 30 -29 3 -16 14
-31 25 -34 12 -3 18 -13 17 -26 -1 -16 -8 -21 -29 -21 -15 0 -29 4 -33 10 -3
5 -12 7 -21 3 -8 -3 -24 3 -35 13 -14 13 -22 15 -31 6 -8 -8 -5 -16 12 -30 16
-13 24 -32 27 -68 11 -112 -58 -81 -111 51 -15 39 -32 77 -37 85 -5 8 -14 27
-20 43 -17 43 -32 33 -26 -20 3 -27 11 -50 21 -55 9 -5 16 -16 16 -24 0 -12
-4 -12 -20 -4 -17 9 -20 8 -20 -14 0 -13 -3 -31 -6 -40 -4 -11 0 -16 14 -16
20 0 51 -37 64 -75 6 -19 6 -19 7 2 2 47 51 34 51 -13 0 -13 5 -24 10 -24 6 0
10 -6 10 -13 0 -16 58 -72 84 -81 14 -5 17 -14 14 -42 -3 -30 -1 -35 13 -31
10 3 25 -3 34 -13 9 -10 23 -16 31 -13 8 3 14 0 14 -6 0 -7 -7 -14 -15 -17
-20 -8 -20 -54 0 -54 9 0 18 -8 22 -17 10 -29 45 -63 65 -63 10 0 18 -7 18
-15 0 -8 7 -15 15 -15 8 0 15 -8 15 -18 0 -10 10 -27 23 -38 12 -11 34 -34 49
-52 15 -18 38 -36 51 -41 18 -7 27 -22 35 -54 7 -24 14 -52 18 -61 5 -13 2
-15 -12 -9 -37 13 -96 67 -145 131 -45 60 -48 66 -31 78 15 12 15 15 2 24 -19
12 -40 13 -40 0 0 -5 -7 -7 -15 -4 -9 4 -18 -1 -22 -11 -4 -13 2 -24 20 -37
15 -11 27 -28 27 -38 0 -32 11 -50 31 -50 11 0 19 -7 19 -18 0 -10 14 -23 33
-31 41 -19 54 -32 63 -65 4 -19 14 -27 40 -32 19 -3 43 -17 54 -31 15 -20 25
-24 45 -19 28 7 46 -17 27 -36 -8 -8 -4 -19 11 -39 16 -22 29 -29 54 -29 20 0
32 -4 28 -10 -7 -11 6 -13 29 -4 11 4 13 14 9 35 -7 36 10 38 58 6 25 -17 35
-31 37 -55 2 -23 8 -32 22 -32 29 0 50 -11 50 -26 0 -8 5 -14 10 -14 6 0 10
-8 10 -18 0 -20 29 -48 55 -54 10 -1 23 -11 29 -20 8 -14 6 -21 -9 -33 -18
-14 -19 -16 -4 -28 9 -6 19 -22 23 -35 4 -12 14 -22 22 -22 8 0 14 -4 14 -10
0 -6 23 -8 56 -5 45 3 59 0 75 -16 10 -10 30 -19 44 -19 25 0 35 -23 15 -35
-5 -3 -10 -22 -10 -40 0 -33 1 -34 25 -23 29 13 31 21 10 38 -14 11 -13 14 2
25 15 11 19 10 28 -9 6 -12 22 -22 37 -24 15 -2 32 -10 38 -18 7 -8 18 -14 25
-14 12 0 45 -41 45 -56 0 -3 -9 -4 -20 -1 -26 7 -36 -11 -17 -30 11 -11 19
-12 35 -4 15 8 23 7 31 -3 7 -8 24 -17 39 -21 33 -8 62 -33 62 -53 0 -8 6 -12
14 -9 8 3 20 -1 27 -9 7 -8 18 -13 25 -10 8 3 19 -4 24 -15 9 -16 17 -19 48
-13 20 4 42 14 48 22 6 8 16 12 23 8 8 -6 9 -12 2 -20 -15 -18 34 -61 83 -75
21 -5 49 -20 61 -31 14 -13 39 -22 66 -24 53 -4 99 -21 99 -37 0 -6 9 -9 20
-6 28 7 70 -14 70 -35 0 -19 25 -25 35 -8 9 14 44 12 60 -2 42 -38 46 -40 59
-29 10 8 17 7 26 -4 7 -8 19 -15 26 -15 8 0 14 -4 14 -10 0 -13 36 -13 61 0
11 6 25 7 32 3 6 -4 27 -9 46 -10 19 -1 39 -7 45 -13 5 -5 20 -10 31 -10 12 0
25 -3 29 -7 4 -4 26 -8 50 -8 23 -1 47 -5 54 -9 6 -3 22 -4 35 0 14 3 28 1 32
-5 4 -7 20 -9 42 -5 31 6 38 3 58 -22 19 -24 25 -26 38 -15 9 7 21 10 27 6 6
-4 17 -2 25 5 10 9 15 7 19 -8 4 -11 17 -32 31 -48 21 -24 25 -26 31 -11 7 20
70 24 77 5 3 -9 11 -5 22 10 13 18 20 20 30 12 10 -8 19 -8 34 1 17 11 23 10
39 -5 13 -11 22 -14 27 -7 8 15 58 14 73 -1 9 -9 16 -7 32 7 17 15 25 17 40 8
14 -10 21 -9 30 2 17 20 49 19 72 -2 17 -15 22 -15 41 -3 59 37 79 43 100 31
16 -10 22 -10 34 2 11 11 24 12 50 7 19 -5 37 -11 40 -13 2 -3 18 -1 34 5 24
8 34 7 49 -7 16 -15 19 -15 27 -1 7 13 18 14 61 7 57 -9 68 -5 50 16 -15 19
10 37 29 22 17 -15 33 -2 33 25 0 18 7 25 28 29 15 3 31 1 37 -4 5 -5 17 -9
26 -9 9 0 22 -7 29 -15 10 -12 16 -13 27 -3 12 10 12 13 -2 21 -12 6 -15 16
-11 33 8 29 -6 31 -65 7 -39 -15 -42 -15 -51 0 -5 10 -19 17 -30 17 l-22 0 22
20 c12 12 22 27 22 35 0 17 16 20 25 6 3 -5 19 -12 36 -16 23 -5 34 -3 44 12
7 10 17 15 21 10 4 -4 2 -13 -4 -19 -16 -16 -15 -29 2 -22 9 4 20 -5 30 -23
22 -44 41 -57 55 -39 7 8 16 27 20 43 6 23 15 30 52 38 24 6 50 14 57 18 21
14 35 -3 18 -21 -13 -15 -12 -20 9 -44 l23 -27 5 27 c3 15 1 35 -5 45 -13 26
-2 34 20 14 21 -19 48 -22 57 -7 4 6 10 8 14 5 12 -7 71 25 78 42 5 12 9 11
24 -3 11 -9 36 -18 56 -19 20 -2 39 -7 40 -12 2 -6 -7 -8 -22 -6 -26 6 -31 -2
-16 -26 10 -15 61 -22 61 -9 0 4 16 15 35 24 22 10 35 23 35 36 0 14 5 18 18
14 10 -4 40 -2 68 3 40 8 52 6 67 -6 19 -18 18 -18 35 20 9 20 19 27 40 27 30
0 52 16 52 37 0 19 -40 16 -77 -6 -30 -19 -32 -19 -47 -2 -20 22 -20 41 0 70
12 17 22 21 40 17 13 -4 24 -3 24 2 0 13 57 30 84 25 31 -6 32 -17 6 -50 -11
-15 -19 -27 -18 -28 2 -1 19 -5 39 -9 31 -5 37 -3 42 14 3 11 13 23 24 27 25
9 34 25 22 40 -6 7 -7 17 -3 24 4 7 2 10 -7 7 -8 -3 -13 -14 -11 -26 3 -20
-28 -39 -46 -28 -10 6 -3 76 7 76 5 0 13 11 19 25 15 34 37 32 52 -5 10 -23
19 -30 40 -30 16 0 30 7 34 15 3 8 10 15 16 15 5 0 10 -7 10 -15 0 -8 -5 -15
-12 -15 -14 0 -81 -50 -75 -57 3 -2 14 1 25 8 16 10 26 10 46 1 23 -10 26 -9
26 8 0 27 41 65 73 66 15 1 35 5 45 9 9 5 25 7 36 6 15 -2 17 2 12 23 -4 18
-2 26 7 26 7 0 19 6 26 12 6 7 33 13 58 13 28 0 48 5 50 13 3 6 -3 12 -12 12
-10 0 -15 7 -13 17 1 10 -1 24 -6 31 -10 16 7 37 23 28 5 -4 8 -13 4 -21 -3
-8 0 -15 6 -15 6 0 14 12 17 26 4 17 11 23 22 19 8 -3 24 4 35 16 15 16 27 20
50 15 33 -7 137 36 137 56 0 6 11 8 25 6 14 -3 30 1 36 8 6 7 16 11 22 8 7 -2
17 6 22 18 6 13 20 24 33 26 12 2 22 10 22 18 0 8 16 31 35 51 19 20 34 41 33
47 -1 6 2 25 6 43 5 23 15 34 38 42 17 6 34 9 38 6 12 -7 100 34 100 47 0 15
48 58 66 58 7 0 14 5 14 10 0 6 9 10 20 10 20 0 60 32 60 49 0 5 9 11 20 14
12 3 20 14 20 25 0 29 39 92 56 92 16 0 54 35 54 50 0 6 -7 10 -15 10 -8 0
-15 9 -15 19 0 20 25 51 40 51 17 0 20 -18 5 -30 -21 -18 -19 -27 10 -32 24
-5 25 -3 19 28 -5 26 -2 35 10 40 9 3 16 16 16 28 0 28 11 43 35 47 13 3 21
14 23 32 3 22 10 29 33 34 31 6 35 13 19 29 -17 17 0 75 26 86 12 6 25 19 27
29 3 11 13 19 22 19 12 0 15 6 10 19 -8 27 13 36 35 16 18 -16 20 -16 26 -2 3
9 3 21 -1 27 -9 15 13 40 36 40 12 0 16 5 13 15 -4 8 2 27 11 41 14 22 15 30
4 50 -10 19 -10 27 -1 36 7 7 12 22 12 35 0 12 6 26 14 30 8 4 14 17 13 28 -1
12 7 24 21 30 25 11 24 24 -2 39 -14 9 -20 8 -24 -4 -6 -19 -84 -92 -90 -85
-3 3 2 20 11 37 9 18 22 48 29 66 8 22 26 41 51 53 20 11 37 26 37 34 0 8 5
15 11 15 7 0 8 -11 4 -30 -5 -22 -3 -32 9 -36 9 -3 16 -17 16 -30 0 -15 6 -24
15 -24 9 0 15 -9 15 -25 l0 -24 25 25 c14 14 25 31 25 39 0 8 4 15 9 15 5 0
12 11 15 25 4 14 15 34 25 44 10 10 24 35 31 55 8 25 18 36 31 36 16 0 18 5
12 47 -3 27 -7 50 -9 52 -2 2 -15 -11 -30 -28 -31 -37 -39 -32 -47 24 -6 36
-3 44 22 68 27 25 61 29 61 6 0 -5 11 -9 25 -9 19 0 26 7 34 37 7 25 7 39 0
44 -18 11 20 129 42 129 5 0 7 11 3 24 -4 18 -1 27 15 36 26 13 27 30 4 30
-17 1 -17 1 0 14 9 7 17 18 17 25 0 6 9 11 20 11 20 0 55 62 46 84 -2 6 -7 2
-12 -8 -4 -11 -15 -27 -25 -37 -16 -16 -17 -16 -22 3 -3 11 0 21 9 25 20 7 47
69 41 93 -3 11 -1 20 5 20 6 0 3 11 -6 24 -10 15 -12 27 -6 31 6 3 10 17 10
31 0 13 4 24 9 24 5 0 14 14 20 30 9 29 41 43 41 18 0 -6 9 -3 21 8 11 10 18
26 16 35 -2 9 0 24 5 33 7 12 5 18 -7 23 -21 7 -35 -13 -35 -50 0 -17 -4 -26
-11 -22 -6 4 -8 12 -6 19 2 6 1 20 -3 31 -10 27 4 50 40 65 45 19 66 111 38
168 -15 28 -15 34 -2 47 9 8 19 15 23 15 5 0 14 21 21 47 6 27 17 58 23 71 8
16 8 25 -1 34 -7 7 -8 17 -1 30 6 10 6 18 1 18 -11 0 -22 -35 -22 -72 0 -18
-5 -28 -15 -28 -11 0 -14 10 -10 44 3 33 0 48 -13 59 -14 13 -17 30 -15 77 2
46 -1 60 -12 60 -21 0 -28 19 -14 36 9 11 9 18 1 26 -14 14 -4 66 20 101 13
18 18 40 16 64 -3 32 0 37 24 44 36 9 39 4 32 -53 -6 -41 -4 -47 9 -42 19 7
29 37 29 94 0 26 6 52 14 62 14 14 14 17 -1 26 -16 8 -16 11 0 42 13 26 14 37
5 59 -6 15 -10 32 -8 37 1 5 -3 19 -10 31 -6 12 -9 28 -6 36 6 17 -9 52 -38
83 -17 19 -17 22 -3 34 18 15 11 30 -17 30 -16 0 -19 5 -14 23 3 12 6 25 6 29
0 4 7 5 15 2 8 -4 22 -3 31 0 15 6 15 8 1 24 -17 20 -23 138 -7 157 7 9 6 16
-4 24 -11 10 -17 8 -29 -10 -10 -13 -22 -19 -31 -16 -20 8 -20 23 -1 31 8 3
15 12 15 20 0 8 8 19 17 25 12 6 14 13 7 23 -13 16 -34 88 -34 115 0 10 -5 24
-12 31 -7 7 -13 22 -13 34 0 12 -6 23 -12 25 -16 6 -18 -59 -3 -87 7 -13 6
-19 -6 -24 -24 -9 -36 3 -30 29 4 14 0 27 -9 35 -23 19 -46 72 -39 92 4 12 -1
24 -12 32 -9 7 -13 16 -7 19 5 3 8 24 6 46 -1 22 1 43 6 46 10 5 51 -76 51
-99 0 -17 24 -66 32 -66 4 0 10 5 13 10 3 6 1 10 -4 10 -6 0 -11 11 -11 25 0
14 -4 25 -10 25 -14 0 -13 33 2 48 9 9 8 12 -6 12 -11 0 -16 6 -14 18 2 9 12
17 23 17 29 1 22 40 -16 94 -22 32 -29 50 -24 70 4 20 0 32 -14 45 -12 11 -21
14 -26 7 -7 -13 25 -123 40 -133 6 -5 5 -11 -5 -18 -10 -6 -21 -4 -35 9 -11
10 -28 21 -37 24 -18 6 -22 23 -18 61 1 10 -7 28 -18 40 -11 13 -19 37 -20 62
0 22 -8 60 -16 85 -22 61 -20 78 9 89 23 9 23 11 10 37 -20 38 -19 53 4 53 18
0 19 2 5 30 -19 37 -39 52 -32 22 5 -19 4 -20 -14 -11 -26 14 -34 38 -19 61
10 17 9 20 -9 25 -28 7 -68 89 -51 106 19 19 12 37 -13 37 -19 0 -25 6 -29 33
-2 17 0 38 6 45 8 10 6 23 -8 48 -18 34 -25 38 -57 35 -9 -1 -19 3 -23 9 -3 5
1 10 9 10 20 0 31 19 17 33 -6 6 -11 19 -11 29 0 13 -8 18 -29 18 -25 0 -30 5
-35 35 -5 26 -12 35 -26 35 -27 0 -25 18 3 31 20 8 19 9 -8 5 -33 -5 -54 15
-55 50 0 12 -7 24 -15 28 -8 3 -15 15 -15 27 0 11 -11 34 -25 50 -18 22 -23
37 -19 57 7 36 -25 67 -67 64 -20 -2 -29 2 -29 13 0 8 7 15 15 15 21 0 19 13
-4 27 -10 6 -21 29 -25 52 -3 23 -11 41 -17 41 -17 0 -69 57 -69 75 0 8 -8 18
-17 22 -10 4 -35 25 -57 47 -36 38 -38 39 -32 15 5 -24 -6 -39 -30 -39 -10 0
-2 48 11 67 17 24 2 44 -18 24 -18 -18 -47 -13 -47 8 0 11 -4 22 -9 25 -5 3
-7 15 -4 26 4 14 -4 29 -25 48 -17 16 -32 35 -34 43 -2 7 -16 18 -33 24 -20 7
-31 18 -33 33 -2 13 -11 26 -20 29 -23 8 -112 102 -112 117 0 20 -11 26 -29
17 -17 -10 -56 10 -44 22 12 12 -46 60 -66 54 -18 -4 -30 10 -45 56 -3 9 -15
17 -26 17 -13 0 -20 7 -20 20 0 15 -7 20 -25 20 -15 0 -25 6 -25 14 0 23 -17
28 -34 11 -24 -25 -75 -40 -89 -26 -6 6 -21 11 -34 11 -16 0 -23 6 -24 20 -1
11 -2 26 -3 33 -1 6 5 11 12 9 7 -1 12 9 12 28 0 16 -4 30 -10 30 -5 0 -25 14
-44 30 -33 29 -52 28 -40 -3 3 -8 -8 -27 -25 -44 -31 -32 -31 -43 1 -43 23 0
23 -16 1 -29 -13 -7 -21 -5 -29 7 -11 14 -16 15 -31 4 -32 -22 -44 -25 -56
-13 -9 10 -8 16 7 27 18 13 18 15 3 32 -25 27 -21 31 18 25 40 -6 46 7 18 47
-16 22 -16 23 1 17 46 -18 66 -19 72 -4 6 17 -28 57 -50 57 -8 0 -17 7 -20 16
-4 10 -13 13 -26 9 -14 -4 -22 -1 -27 12 -11 34 -46 63 -82 69 -20 4 -50 15
-67 25 -28 15 -35 16 -59 3 -34 -17 -35 -17 -35 0 0 20 -17 29 -51 28 -16 0
-29 4 -29 10 0 7 -16 8 -44 4 -42 -7 -44 -6 -39 15 5 18 3 20 -16 14 -23 -7
-30 12 -10 32 19 19 -23 50 -77 56 -27 3 -59 9 -72 12 -42 13 -14 -21 29 -35
70 -23 67 -45 -5 -31 -62 11 -69 -3 -8 -19 69 -17 142 -52 153 -71 5 -10 33
-29 63 -44 44 -21 58 -34 70 -66 21 -53 21 -81 -1 -77 -10 2 -22 12 -28 24 -5
11 -19 29 -29 39 -18 18 -20 18 -49 1 -20 -11 -32 -13 -37 -6 -4 6 -14 8 -24
4 -11 -4 -26 3 -44 23 -35 38 -102 79 -124 75 -18 -3 -23 9 -33 76 -5 32 -3
42 7 42 7 1 -3 9 -22 18 -22 11 -36 26 -38 40 -3 19 1 22 31 22 30 0 35 3 35
24 0 17 -5 23 -14 19 -8 -3 -21 0 -29 7 -12 10 -18 10 -30 0 -10 -9 -15 -9
-15 -1 0 6 -7 11 -15 11 -8 0 -15 7 -15 15 0 8 -8 15 -18 15 -10 0 -27 7 -40
15 -25 18 -64 22 -109 11 -31 -7 -33 -6 -33 18 0 25 -2 26 -59 26 -32 0 -76 7
-96 16 -21 9 -49 14 -62 11 -17 -3 -23 0 -23 13 0 10 -11 25 -25 34 -35 23
-73 4 -81 -41 -5 -26 -11 -33 -29 -33 -13 0 -32 11 -44 26 -19 25 -20 25 -47
8 l-26 -18 21 -17 c12 -10 27 -19 34 -22 9 -3 7 -10 -5 -23 -14 -14 -20 -15
-30 -6 -7 7 -20 12 -30 12 -9 0 -23 10 -29 22 -9 17 -9 24 4 33 18 13 39 83
27 90 -5 3 -20 1 -34 -5 -17 -6 -27 -6 -32 1 -4 7 -10 6 -19 -1 -10 -8 -15 -8
-20 0 -4 6 -13 9 -21 6 -8 -3 -21 5 -30 19 -9 14 -20 22 -25 19 -14 -8 -11
-44 4 -45 6 0 3 -4 -8 -8 -16 -7 -21 -4 -25 18 -5 27 -35 37 -35 11 0 -8 -4
-20 -7 -26 -9 -14 0 -24 23 -24 10 0 30 -5 46 -12 15 -6 51 -16 78 -22 33 -7
50 -16 50 -26 0 -9 -9 -15 -21 -15 -11 0 -27 -5 -35 -11 -17 -13 -88 -15 -110
-4 -10 6 -20 5 -27 -2 -9 -9 -15 -9 -24 0 -7 7 -19 12 -28 12 -9 0 -17 6 -17
13 0 6 -4 19 -7 28 -5 11 1 23 18 36 l25 20 -22 11 -22 11 23 7 c12 3 22 9 22
13 0 4 -10 7 -22 8 -13 1 -38 5 -55 8 -20 4 -33 2 -33 -5 0 -5 5 -10 10 -10 6
0 10 -7 10 -16 0 -11 -6 -14 -22 -8 -34 10 -95 9 -110 -3 -19 -17 -65 22 -49
41 9 10 8 15 -4 20 -8 3 -19 4 -23 3 -10 -3 -11 -57 -1 -57 5 0 9 -4 9 -10 0
-17 -36 -11 -53 8 -21 23 -22 38 -2 46 13 5 13 9 3 26 -13 20 -13 20 -29 -2
-12 -15 -22 -19 -35 -14 -11 5 -66 10 -124 12 -58 2 -106 8 -108 14 -2 5 -7 9
-10 9 -4 -1 -20 -4 -37 -8z m-333 -86 c10 -10 -5 -55 -18 -55 -8 0 -14 -4 -14
-10 0 -16 -20 -11 -27 6 -4 10 0 20 10 26 9 4 14 15 11 23 -4 10 0 15 13 15
11 0 22 -2 25 -5z m1198 -35 c0 -5 -4 -10 -10 -10 -5 0 -10 5 -10 10 0 6 5 10
10 10 6 0 10 -4 10 -10z m323 -24 c23 -18 22 -22 -8 -21 -29 2 -39 10 -30 24
8 14 16 13 38 -3z m-1665 -14 c2 -7 -6 -12 -20 -12 -13 0 -33 -6 -43 -14 -11
-8 -25 -12 -32 -9 -7 3 -13 -2 -13 -11 0 -20 -29 -20 -54 -1 -19 15 -19 15 2
15 12 0 22 6 22 14 0 9 20 17 58 24 66 11 74 10 80 -6z m-238 -57 c0 -16 -38
-35 -71 -35 -30 0 -22 19 14 35 42 19 57 18 57 0z m444 0 c-4 -8 -10 -12 -15
-9 -14 8 -10 24 6 24 9 0 12 -6 9 -15z m-634 -5 c0 -5 -4 -10 -10 -10 -5 0
-10 5 -10 10 0 6 5 10 10 10 6 0 10 -4 10 -10z m536 -11 c25 -15 34 -28 34
-47 l0 -27 -20 25 c-17 21 -21 23 -30 10 -5 -8 -10 -19 -10 -23 0 -5 -6 -7
-12 -4 -7 2 -21 0 -30 -4 -13 -7 -20 -4 -28 11 -13 24 -28 25 -52 3 -14 -13
-21 -14 -30 -5 -7 7 -22 12 -35 12 -18 0 -23 6 -23 24 0 22 5 25 53 30 28 3
66 8 82 9 61 8 68 7 101 -14z m978 6 c4 -10 20 -15 51 -15 38 0 45 -3 45 -20
0 -31 -49 -39 -70 -12 -10 12 -20 18 -24 15 -8 -8 -36 17 -36 33 0 19 26 18
34 -1z m716 5 c0 -5 -4 -10 -10 -10 -5 0 -10 5 -10 10 0 6 5 10 10 10 6 0 10
-4 10 -10z m-91 -16 c1 -1 0 -7 -3 -12 -7 -11 -56 7 -56 21 0 6 49 -1 59 -9z
m-2219 -6 c0 -18 -51 -41 -64 -28 -14 14 12 40 40 40 13 0 24 -6 24 -12z
m2067 -8 c-6 -22 3 -25 61 -21 30 3 33 0 27 -18 -5 -16 2 -24 34 -41 23 -11
41 -25 41 -30 0 -15 -48 -12 -53 3 -3 9 -12 9 -41 -2 -37 -13 -39 -12 -75 23
-32 31 -41 35 -66 28 -34 -9 -65 -5 -65 8 0 15 37 31 67 28 36 -2 54 8 46 27
-3 10 1 15 12 15 12 0 16 -6 12 -20z m213 -10 c0 -5 -4 -10 -9 -10 -6 0 -13 5
-16 10 -3 6 1 10 9 10 9 0 16 -4 16 -10z m-1920 -27 c-1 -28 -22 -48 -53 -51
l-29 -2 34 34 c39 39 48 43 48 19z m2210 2 c0 -8 -7 -15 -15 -15 -8 0 -15 7
-15 15 0 8 7 15 15 15 8 0 15 -7 15 -15z m-1860 -11 c0 -14 -3 -14 -15 -4 -8
7 -15 14 -15 16 0 2 7 4 15 4 8 0 15 -7 15 -16z m1155 6 c3 -6 -1 -13 -10 -16
-19 -8 -30 0 -20 15 8 14 22 14 30 1z m615 -5 c0 -8 -7 -15 -15 -15 -16 0 -20
12 -8 23 11 12 23 8 23 -8z m-228 -10 c0 -5 -5 -11 -11 -13 -6 -2 -11 4 -11
13 0 9 5 15 11 13 6 -2 11 -8 11 -13z m-432 -5 c0 -5 -4 -10 -10 -10 -5 0 -10
5 -10 10 0 6 5 10 10 10 6 0 10 -4 10 -10z m835 -29 c8 -13 -10 -22 -29 -15
-9 3 -16 15 -16 25 0 16 3 18 19 9 11 -5 22 -14 26 -19z m-265 -1 c12 -8 11
-10 -7 -10 -13 0 -23 5 -23 10 0 13 11 13 30 0z m-1955 -20 c-3 -5 -13 -10
-21 -10 -8 0 -12 5 -9 10 3 6 13 10 21 10 8 0 12 -4 9 -10z m2170 -100 c3 -5
1 -10 -4 -10 -6 0 -11 5 -11 10 0 6 2 10 4 10 3 0 8 -4 11 -10z m-118 -6 c-3
-3 -12 -4 -19 -1 -8 3 -5 6 6 6 11 1 17 -2 13 -5z m94 -24 c5 0 9 -7 9 -15 0
-12 -4 -13 -25 -3 -27 12 -35 34 -9 24 9 -3 20 -6 25 -6z m555 -77 c-7 -7 -26
7 -26 19 0 6 6 6 15 -2 9 -7 13 -15 11 -17z m119 -7 c15 -11 17 -17 7 -28 -10
-12 -8 -18 8 -33 11 -10 17 -22 14 -27 -4 -5 -18 2 -33 16 -15 14 -41 29 -59
32 -39 8 -43 27 -4 22 21 -2 27 1 26 15 -2 21 15 22 41 3z m-3625 -61 c0 -8
-7 -15 -15 -15 -8 0 -39 -13 -68 -30 -52 -29 -92 -41 -71 -21 18 18 128 81
141 81 7 0 13 -7 13 -15z m-187 -91 c-3 -8 -18 -18 -34 -21 -16 -3 -29 -9 -29
-14 0 -5 -7 -9 -15 -9 -27 0 -16 19 23 39 45 25 63 26 55 5z m3947 -38 c0 -8
-7 -17 -16 -20 -23 -9 -24 -8 -24 14 0 13 7 20 20 20 11 0 20 -6 20 -14z m195
-126 c3 -5 -1 -10 -10 -10 -9 0 -13 5 -10 10 3 6 8 10 10 10 2 0 7 -4 10 -10z
m-37 -42 c19 -19 14 -30 -8 -18 -11 6 -20 15 -20 20 0 14 14 12 28 -2z m228
-40 c7 -10 -20 -38 -38 -38 -10 0 -11 34 -1 43 10 11 31 8 39 -5z m65 -50 c14
-19 16 -27 7 -20 -10 8 -26 10 -42 6 -23 -5 -26 -3 -26 20 0 37 33 34 61 -6z
m-65 -83 c1 -37 -2 -45 -18 -45 -14 0 -18 8 -18 38 0 21 3 42 7 45 17 18 28 3
29 -38z m184 -21 c0 -14 -3 -14 -15 -4 -8 7 -15 14 -15 16 0 2 7 4 15 4 8 0
15 -7 15 -16z m-126 -39 c11 -8 16 -18 13 -22 -9 -9 -58 18 -51 29 7 11 16 10
38 -7z m126 -40 c18 -22 3 -37 -23 -22 -12 6 -24 13 -26 14 -1 1 0 6 4 12 9
15 30 14 45 -4z m212 -85 c6 0 8 -7 4 -15 -3 -9 8 -31 29 -54 28 -31 32 -40
20 -45 -8 -3 -15 -12 -15 -21 0 -8 -5 -15 -11 -15 -6 0 -9 14 -7 33 3 28 0 32
-24 35 -16 2 -28 9 -28 16 0 8 -3 28 -7 46 -5 29 -4 32 11 27 10 -4 22 -7 28
-7z m126 -184 c3 -12 -1 -17 -10 -14 -7 3 -15 13 -16 22 -3 12 1 17 10 14 7
-3 15 -13 16 -22z m-6108 -6 c0 -5 7 -10 15 -10 27 0 17 -40 -15 -58 -28 -15
-30 -21 -25 -51 4 -18 1 -55 -6 -82 -12 -45 -15 -48 -37 -42 -21 5 -24 3 -19
-10 5 -13 -2 -18 -31 -23 -20 -4 -44 -16 -53 -28 -14 -16 -20 -18 -30 -9 -9 9
-9 15 0 26 16 20 -7 64 -31 59 -27 -5 -22 15 14 58 24 28 36 36 45 28 21 -17
44 -2 38 25 -5 19 1 28 35 51 22 15 51 38 62 51 23 26 38 32 38 15z m6290
-111 c14 -25 11 -30 -18 -22 -13 3 -22 13 -22 24 0 25 27 24 40 -2z m-6590
-16 c0 -5 -5 -15 -10 -23 -8 -12 -10 -11 -10 8 0 12 5 22 10 22 6 0 10 -3 10
-7z m60 -169 c0 -7 -8 -15 -19 -19 -12 -4 -21 -19 -25 -45 -7 -43 -16 -49 -40
-24 -22 21 -20 32 15 87 29 47 31 48 50 31 10 -9 19 -23 19 -30z m6600 21 c10
-12 10 -15 -4 -15 -9 0 -16 7 -16 15 0 8 2 15 4 15 2 0 9 -7 16 -15z m-6705
-4 c7 -12 -12 -24 -25 -16 -11 7 -4 25 10 25 5 0 11 -4 15 -9z m12 -328 c4 -9
1 -19 -5 -21 -7 -2 -12 -13 -12 -25 0 -28 -36 -52 -72 -48 -30 3 -36 -7 -16
-27 9 -9 7 -12 -10 -12 -12 0 -22 -6 -22 -14 0 -18 -16 -29 -30 -21 -17 11 8
52 73 119 68 69 83 77 94 49z m-104 -10 c21 -12 1 -23 -43 -23 -40 0 -51 -4
-60 -21 -7 -11 -9 -27 -6 -35 5 -14 -15 -20 -26 -8 -10 10 36 86 57 94 18 8
59 4 78 -7z m7022 -23 c3 -5 -1 -10 -9 -10 -9 0 -16 5 -16 10 0 6 4 10 9 10 6
0 13 -4 16 -10z m-7235 -26 c0 -14 -12 -19 -23 -8 -9 9 4 35 14 28 5 -3 9 -12
9 -20z m7305 -54 c3 -5 1 -10 -4 -10 -6 0 -11 5 -11 10 0 6 2 10 4 10 3 0 8
-4 11 -10z m-7035 -16 c0 -8 -5 -12 -10 -9 -6 4 -8 11 -5 16 9 14 15 11 15 -7z
m7090 -54 c0 -6 -7 -10 -15 -10 -8 0 -15 2 -15 4 0 2 -3 12 -7 21 -5 15 -3 16
15 6 12 -7 22 -16 22 -21z m44 22 c8 -13 -11 -35 -23 -28 -16 10 -14 36 3 36
8 0 17 -4 20 -8z m32 -149 c31 -73 4 -86 -47 -22 -28 36 -30 42 -16 50 10 6
14 16 10 27 -12 32 38 -20 53 -55z m-7266 -2 c-13 -39 -33 -57 -51 -45 -5 3
-9 9 -9 14 0 13 62 82 68 75 3 -3 -1 -23 -8 -44z m-55 -81 c3 -5 1 -10 -4 -10
-6 0 -11 5 -11 10 0 6 2 10 4 10 3 0 8 -4 11 -10z m7345 0 c0 -5 -4 -10 -10
-10 -5 0 -10 5 -10 10 0 6 5 10 10 10 6 0 10 -4 10 -10z m-7385 -30 c9 14 28
13 23 -2 -3 -7 -11 -13 -19 -13 -9 0 -13 -9 -11 -25 1 -14 -4 -30 -13 -36 -9
-7 -17 -21 -18 -31 -1 -15 -7 -18 -24 -15 -34 6 -35 14 -12 63 30 62 39 72 54
59 9 -8 15 -8 20 0z m7389 -61 c14 -17 26 -34 26 -39 0 -5 14 -29 30 -54 38
-55 84 -246 60 -246 -6 0 -9 3 -8 8 1 4 -5 21 -12 37 -7 17 -13 33 -12 37 1 4
-8 10 -19 13 -12 4 -18 12 -15 21 3 7 0 17 -7 21 -7 5 -23 23 -36 42 -21 29
-22 36 -10 58 12 22 11 26 -10 42 -13 10 -21 23 -17 29 3 6 2 22 -4 36 -13 35
3 33 34 -5z m-7478 -188 c-19 -19 -30 -9 -21 19 5 17 9 19 21 9 13 -11 13 -14
0 -28z m-286 -481 c0 -5 -5 -10 -11 -10 -5 0 -7 5 -4 10 3 6 8 10 11 10 2 0 4
-4 4 -10z m43 -367 c-7 -2 -13 -12 -13 -20 0 -9 -3 -14 -6 -10 -10 10 4 37 18
36 10 0 10 -2 1 -6z m8123 -17 c8 -31 2 -69 -12 -73 -6 -2 -11 16 -12 47 -1
52 13 68 24 26z m-8206 -76 c0 -14 -23 -18 -43 -8 -14 7 -16 12 -7 23 9 11 17
12 31 4 10 -5 19 -14 19 -19z m8157 -94 c-3 -8 0 -19 7 -25 21 -17 27 -63 33
-221 2 -80 5 -163 7 -185 2 -40 -35 -125 -55 -125 -10 0 -12 43 -2 53 9 10 10
66 2 105 -4 18 -3 35 3 38 5 3 2 14 -8 25 -13 15 -15 22 -6 31 7 7 12 22 12
34 0 13 5 26 10 29 13 8 -6 35 -24 35 -17 0 -52 40 -61 68 -4 14 -2 30 7 40 7
9 18 27 25 38 10 19 9 23 -8 27 -26 7 -24 26 4 37 35 14 60 12 54 -4z m82 -78
c1 -5 -6 -8 -14 -8 -16 0 -19 9 -8 36 6 16 7 16 14 -2 4 -10 8 -22 8 -26z m26
-467 c3 -5 1 -12 -5 -16 -5 -3 -10 1 -10 9 0 18 6 21 15 7z m-8348 -101 c-18
-16 -24 -17 -36 -5 -7 7 -11 20 -8 29 5 12 12 13 36 5 l31 -11 -23 -18z m-130
-66 c3 -21 15 -51 25 -65 16 -21 19 -40 16 -114 -2 -59 -7 -90 -15 -93 -8 -2
-13 5 -13 18 0 20 -4 22 -35 17 -37 -6 -45 3 -20 23 14 12 14 15 -1 31 -9 10
-13 23 -9 29 4 7 8 51 10 99 1 48 5 93 10 100 11 19 25 0 32 -45z m95 -39 c0
-5 -5 -11 -11 -13 -6 -2 -11 4 -11 13 0 9 5 15 11 13 6 -2 11 -8 11 -13z m13
-55 c-3 -4 2 -13 10 -20 14 -11 14 -16 -1 -38 -12 -18 -13 -27 -6 -30 17 -5
15 -32 -3 -32 -8 0 -15 8 -15 18 0 9 -7 26 -16 37 -10 13 -12 30 -8 50 9 42
14 48 30 34 7 -6 12 -15 9 -19z m95 -45 c0 -7 8 -19 18 -24 10 -7 13 -14 7
-18 -5 -5 -16 -19 -23 -31 -11 -20 -11 -27 2 -41 9 -10 13 -21 9 -25 -4 -4
-15 3 -24 15 -25 33 -40 15 -35 -40 7 -78 -21 -101 -31 -24 -2 21 -6 44 -8 50
-2 7 1 16 8 20 7 5 18 26 26 48 26 76 31 85 41 85 5 0 10 -7 10 -15z m-111
-114 c8 -5 10 -14 6 -21 -5 -7 -8 -32 -7 -54 1 -41 -20 -97 -31 -80 -5 10 -10
75 -8 132 1 32 13 40 40 23z m8312 -134 c-13 -13 -26 -3 -16 12 3 6 11 8 17 5
6 -4 6 -10 -1 -17z m-8258 -17 c16 0 -14 -20 -30 -20 -7 0 -13 7 -13 16 0 11
5 14 16 10 9 -3 21 -6 27 -6z m21 -36 c18 -7 23 -79 6 -89 -5 -3 -10 -15 -10
-26 0 -10 -4 -19 -9 -19 -16 0 -29 118 -14 133 8 8 8 8 27 1z m8174 -156 c-2
-46 -7 -73 -15 -76 -7 -2 -13 4 -13 14 0 9 -8 22 -17 29 -15 11 -15 13 5 24
17 9 19 16 12 40 -9 32 -5 41 17 41 12 0 14 -15 11 -72z m-8088 -12 c0 -9 5
-16 11 -16 8 0 8 -5 -1 -15 -29 -35 -50 -11 -50 57 l0 41 20 -26 c11 -14 20
-32 20 -41z m8030 -86 c0 -32 -16 -76 -38 -102 -9 -10 -10 -18 -5 -18 6 0 20
16 32 35 38 65 54 37 25 -45 -9 -25 -19 -65 -23 -89 -6 -40 -8 -44 -38 -46
-32 -3 -43 7 -23 20 12 7 14 82 2 89 -4 2 -9 41 -10 85 l-2 80 32 10 c48 14
48 14 48 -19z m90 20 c0 -5 -2 -10 -4 -10 -3 0 -8 5 -11 10 -3 6 -1 10 4 10 6
0 11 -4 11 -10z m-8203 -35 c9 -25 -4 -29 -17 -6 -7 15 -7 21 0 21 6 0 13 -7
17 -15z m98 5 c3 -5 1 -10 -4 -10 -6 0 -11 5 -11 10 0 6 2 10 4 10 3 0 8 -4
11 -10z m-145 -56 c0 -14 -4 -22 -10 -19 -5 3 -10 17 -10 31 0 14 4 22 10 19
6 -3 10 -17 10 -31z m190 16 c0 -5 -7 -10 -15 -10 -8 0 -15 5 -15 10 0 6 7 10
15 10 8 0 15 -4 15 -10z m-44 -98 c-9 -8 -26 10 -26 26 1 15 2 15 15 -2 8 -11
13 -21 11 -24z m-61 -12 c-3 -5 -10 -10 -16 -10 -5 0 -9 5 -9 10 0 6 7 10 16
10 8 0 12 -4 9 -10z m38 -56 c9 -4 20 -18 23 -33 4 -14 15 -35 26 -47 13 -15
20 -41 23 -88 2 -37 7 -71 10 -76 4 -6 2 -10 -3 -10 -5 0 -15 21 -22 48 -6 26
-16 57 -21 70 -5 13 -9 31 -9 41 0 10 -11 24 -25 31 -13 7 -29 26 -35 43 -13
38 -13 40 3 33 6 -3 20 -9 30 -12z m7947 -78 c0 -16 -18 -31 -27 -22 -8 8 5
36 17 36 5 0 10 -6 10 -14z m-7959 -33 c14 -16 16 -26 23 -91 1 -18 14 -47 28
-63 17 -18 24 -36 21 -49 -3 -12 0 -20 6 -20 8 0 11 -14 9 -37 -2 -29 -8 -39
-24 -41 -24 -3 -40 24 -48 84 -7 53 -43 162 -62 191 -8 13 -12 28 -9 33 10 16
41 12 56 -7z m7996 -39 c5 -14 -5 -61 -29 -126 -6 -15 -21 -34 -34 -43 -23
-15 -24 -17 -9 -43 14 -25 14 -32 -8 -102 -16 -48 -30 -76 -41 -78 -19 -4 -22
28 -4 46 9 9 9 18 -1 39 -9 19 -9 29 -2 31 19 6 12 44 -11 70 l-23 24 23 15
c12 9 22 22 22 30 0 7 16 23 35 34 25 15 35 28 35 45 0 14 7 27 15 30 10 4 13
13 10 25 -8 23 13 26 22 3z m-7827 -64 c0 -5 -2 -10 -4 -10 -3 0 -8 5 -11 10
-3 6 -1 10 4 10 6 0 11 -4 11 -10z m20 -40 c0 -5 -4 -10 -10 -10 -5 0 -10 5
-10 10 0 6 5 10 10 10 6 0 10 -4 10 -10z m6 -92 c-2 -44 -23 -98 -37 -98 -11
0 -27 105 -20 135 1 3 14 5 30 5 27 0 28 -2 27 -42z m84 -93 c0 -7 5 -15 12
-17 15 -5 3 -37 -18 -45 -10 -4 -20 0 -26 11 -6 10 -16 15 -27 11 -10 -3 -24
1 -30 9 -10 12 -5 18 31 35 44 20 58 19 58 -4z m7496 -82 c-10 -10 -19 5 -10
18 6 11 8 11 12 0 2 -7 1 -15 -2 -18z m4 -309 c0 -9 -5 -14 -12 -12 -18 6 -21
28 -4 28 9 0 16 -7 16 -16z m-80 -14 c0 -21 -15 -27 -25 -10 -7 12 2 30 16 30
5 0 9 -9 9 -20z m62 -42 c-9 -9 -12 -7 -12 12 0 19 3 21 12 12 9 -9 9 -15 0
-24z m-67 -8 c4 -6 1 -18 -6 -26 -10 -13 -14 -12 -31 3 -18 17 -19 18 -1 24
26 11 31 10 38 -1z m35 -69 c0 -6 -4 -13 -10 -16 -5 -3 -10 1 -10 9 0 9 5 16
10 16 6 0 10 -4 10 -9z m-203 -287 c7 -18 -14 -35 -34 -27 -7 3 -13 14 -13 24
0 24 38 26 47 3z m-6882 -18 c19 -8 35 -20 35 -26 0 -17 26 -40 44 -40 9 0 16
-5 16 -12 0 -6 9 -21 20 -33 l21 -22 -28 -30 -28 -30 -62 50 c-64 52 -87 93
-76 137 6 24 13 25 58 6z m6820 -16 c3 -5 1 -10 -4 -10 -6 0 -11 5 -11 10 0 6
2 10 4 10 3 0 8 -4 11 -10z m-6927 -27 c4 -25 -16 -31 -36 -11 -20 20 -14 40
11 36 14 -2 23 -11 25 -25z m6887 -23 c3 -5 1 -10 -4 -10 -6 0 -11 5 -11 10 0
6 2 10 4 10 3 0 8 -4 11 -10z m-85 -109 c0 -12 -26 -32 -33 -25 -9 10 4 34 19
34 8 0 14 -4 14 -9z m-6500 -70 c0 -22 -55 -52 -69 -38 -16 16 -13 54 4 61 8
3 15 16 15 28 0 22 1 22 25 -6 14 -16 25 -36 25 -45z m6395 47 c-8 -26 -113
-127 -132 -128 -25 0 -13 29 27 66 22 21 40 44 40 51 0 7 9 13 19 13 11 0 23
5 26 10 12 19 26 10 20 -12z m51 -49 c3 -6 -1 -18 -10 -27 -18 -18 -21 -16
-30 16 -6 18 -3 22 13 22 11 0 23 -5 27 -11z m-6588 -31 c13 -13 17 -48 5 -48
-10 0 -53 42 -53 52 0 12 34 10 48 -4z m80 -30 c-3 -7 -11 -13 -18 -13 -7 0
-15 6 -17 13 -3 7 4 12 17 12 13 0 20 -5 18 -12z m6472 5 c0 -16 -96 -146
-131 -178 -21 -19 -39 -39 -39 -43 0 -19 -135 -142 -156 -142 -12 0 -29 -3
-38 -6 -9 -3 -16 -1 -16 5 0 6 7 11 16 11 9 0 18 9 21 20 3 11 9 20 13 20 4 0
10 9 13 21 3 11 15 23 26 26 14 3 21 13 21 29 0 27 28 64 47 64 7 0 13 5 13
11 0 6 7 9 15 5 10 -4 15 1 15 14 0 11 5 20 10 20 6 0 10 6 10 13 0 20 54 77
73 77 9 0 20 6 24 14 7 12 26 20 56 25 4 0 7 -2 7 -6z m-6443 -48 c1 -38 -19
-48 -36 -18 -7 13 -5 22 7 35 24 24 28 22 29 -17z m173 5 c0 -20 35 -50 57
-50 16 0 27 -8 33 -24 5 -13 14 -27 19 -31 6 -3 11 -14 11 -25 0 -18 19 -30
48 -30 17 0 62 -38 62 -53 0 -5 19 -26 41 -46 48 -42 70 -94 54 -129 -16 -36
-68 -23 -121 29 -36 35 -44 40 -50 26 -9 -26 -31 -20 -50 12 -10 16 -26 32
-36 34 -22 6 -24 33 -2 41 22 8 33 -1 27 -23 -3 -14 2 -20 22 -25 15 -4 30 -5
32 -2 3 3 -22 36 -56 73 -43 47 -61 73 -57 86 2 11 -8 40 -25 67 -29 48 -37
80 -19 80 6 0 10 -4 10 -10z m20 -187 c0 -9 7 -21 17 -28 9 -7 13 -17 9 -23
-10 -17 -26 -15 -26 4 0 9 -10 24 -22 33 -11 10 -18 23 -14 29 9 15 36 4 36
-15z m6100 -33 c0 -5 -4 -10 -10 -10 -5 0 -10 5 -10 10 0 6 5 10 10 10 6 0 10
-4 10 -10z m-6106 -85 c3 -8 17 -20 31 -25 15 -6 25 -17 25 -29 0 -12 9 -21
25 -25 15 -4 30 -17 35 -31 5 -14 14 -25 20 -25 17 0 11 -18 -8 -25 -24 -7
-67 12 -114 50 -35 27 -36 31 -21 47 15 17 15 20 -5 41 -12 13 -22 26 -22 30
0 14 28 7 34 -8z m5755 -29 c10 -11 7 -25 -13 -65 -14 -28 -26 -57 -26 -65 0
-25 -100 -94 -140 -97 -60 -4 -110 1 -110 11 0 6 7 10 15 10 8 0 15 9 15 19 0
28 12 32 86 33 l64 0 -6 33 c-5 27 -1 37 25 63 17 17 31 37 31 45 0 26 41 35
59 13z m250 -5 c18 -11 5 -31 -20 -31 -11 0 -18 -4 -15 -9 8 -13 -21 -34 -39
-28 -8 4 -17 2 -20 -3 -3 -5 -19 -7 -35 -3 -23 4 -30 2 -30 -10 0 -21 -36 -41
-45 -27 -10 17 2 40 21 40 9 0 27 12 40 27 17 20 27 24 34 17 17 -17 60 -5 60
17 0 20 25 25 49 10z m-5829 -47 c0 -9 -5 -14 -12 -12 -18 6 -21 28 -4 28 9 0
16 -7 16 -16z m205 6 c3 -5 -1 -10 -9 -10 -9 0 -16 5 -16 10 0 6 4 10 9 10 6
0 13 -4 16 -10z m-175 -40 c0 -15 8 -22 29 -26 17 -4 31 -14 34 -25 3 -11 14
-19 25 -19 12 0 24 -4 27 -10 9 -14 -20 -12 -60 4 -19 8 -35 22 -35 30 0 9 -3
16 -7 16 -17 1 -45 29 -38 39 10 18 25 12 25 -9z m240 0 c6 -11 18 -20 26 -20
10 0 14 -7 12 -22 -5 -33 -27 -33 -39 0 -6 17 -17 33 -25 36 -18 7 -18 26 1
26 8 0 19 -9 25 -20z m5430 -25 c0 -8 -7 -15 -15 -15 -9 0 -12 6 -9 15 4 8 10
15 15 15 5 0 9 -7 9 -15z m-5330 -50 c7 -8 18 -15 24 -15 6 0 19 -9 29 -20 15
-18 15 -21 2 -26 -9 -4 -24 1 -34 10 -10 9 -22 16 -27 16 -17 0 -54 31 -49 41
9 14 41 11 55 -6z m-440 -10 c0 -8 -7 -15 -15 -15 -8 0 -15 7 -15 15 0 8 7 15
15 15 8 0 15 -7 15 -15z m5660 5 c0 -5 -4 -10 -10 -10 -5 0 -10 5 -10 10 0 6
5 10 10 10 6 0 10 -4 10 -10z m-5348 -65 c0 -5 -5 -11 -11 -13 -6 -2 -11 4
-11 13 0 9 5 15 11 13 6 -2 11 -8 11 -13z m-38 -21 c9 -3 16 -13 16 -20 0 -12
-4 -12 -20 -4 -11 6 -20 15 -20 20 0 12 3 12 24 4z m76 -14 c0 -5 -4 -10 -10
-10 -5 0 -10 5 -10 10 0 6 5 10 10 10 6 0 10 -4 10 -10z m5043 -42 c21 -11 12
-31 -32 -70 -37 -33 -57 -35 -66 -8 -7 23 2 60 16 60 5 0 9 9 9 20 0 17 4 19
28 14 15 -4 35 -11 45 -16z m142 3 c3 -5 0 -16 -7 -23 -7 -8 -18 -22 -23 -32
-6 -10 -30 -32 -54 -50 -42 -30 -43 -30 -57 -11 -18 24 -14 38 13 40 27 2 80
41 88 65 7 21 30 27 40 11z m-5105 -27 c0 -8 8 -14 18 -14 9 0 24 -4 32 -10
12 -7 12 -12 1 -34 -8 -14 -11 -35 -7 -50 6 -23 9 -25 27 -16 15 9 24 8 35 -1
9 -7 30 -9 58 -6 38 6 46 3 70 -21 15 -16 26 -40 26 -55 0 -15 5 -27 11 -27
20 0 -2 -19 -29 -25 -31 -6 -107 29 -197 93 -50 35 -175 159 -175 174 0 15 43
8 63 -9 18 -17 20 -17 36 3 17 23 31 22 31 -2z m125 6 c3 -5 20 -10 36 -10 29
0 116 -46 106 -57 -3 -2 -30 1 -61 8 -37 8 -64 21 -82 40 -15 16 -23 29 -16
29 6 0 14 -4 17 -10z m4745 -98 c0 -11 -98 -57 -106 -49 -12 12 8 27 47 33 21
4 39 10 39 15 0 5 5 9 10 9 6 0 10 -4 10 -8z m10 -52 c0 -5 -4 -10 -10 -10 -5
0 -10 5 -10 10 0 6 5 10 10 10 6 0 10 -4 10 -10z m-220 -15 c5 3 11 1 14 -4 4
-5 2 -12 -3 -16 -6 -3 -8 -12 -5 -20 6 -14 -63 -65 -88 -65 -7 0 -22 -7 -32
-15 -28 -21 -38 -19 -34 7 2 13 15 29 31 36 15 7 27 20 27 28 0 7 7 14 15 14
9 0 15 9 15 25 0 22 2 24 26 15 14 -6 29 -8 34 -5z m-100 -5 c0 -12 -35 -31
-43 -24 -3 3 -3 12 0 20 6 16 43 19 43 4z m290 -4 c0 -14 -29 -31 -38 -21 -6
6 18 35 29 35 5 0 9 -6 9 -14z m-4470 -61 c0 -10 -19 -5 -34 11 -9 8 -16 23
-16 32 0 13 6 11 25 -10 14 -15 25 -30 25 -33z m4410 36 c0 -12 -39 -25 -48
-16 -7 7 17 25 36 25 6 0 12 -4 12 -9z m-4182 -77 c25 -27 33 -29 49 -13 18
18 75 -17 71 -44 -2 -17 -9 -22 -33 -21 -69 3 -165 62 -165 101 0 22 49 8 78
-23z m3821 -35 c31 -11 31 -12 15 -30 -9 -11 -23 -19 -29 -19 -7 0 -29 -12
-50 -26 -41 -28 -65 -26 -65 5 0 15 10 23 39 31 25 6 42 18 46 30 7 24 4 23
44 9z m-3959 -39 c0 -5 -4 -10 -10 -10 -5 0 -10 5 -10 10 0 6 5 10 10 10 6 0
10 -4 10 -10z m40 -26 c0 -17 -22 -14 -28 4 -2 7 3 12 12 12 9 0 16 -7 16 -16z
m546 -42 c15 -10 37 -52 30 -59 -15 -16 -111 8 -128 32 -14 19 -8 24 35 28 23
2 44 4 47 5 3 1 10 -2 16 -6z m-226 -22 c6 -11 16 -17 25 -14 10 4 15 0 15
-15 0 -12 -5 -21 -10 -21 -22 0 -90 47 -90 62 0 17 50 8 60 -12z m3060 -25 c5
-3 9 -16 9 -28 0 -12 2 -32 6 -44 6 -19 2 -23 -34 -33 -23 -6 -46 -8 -51 -5
-5 3 -21 -2 -34 -11 -24 -15 -29 -15 -71 1 -38 15 -45 22 -45 45 0 21 8 31 44
48 24 12 53 22 64 22 11 0 24 5 27 10 6 10 66 7 85 -5z m-3350 -9 c0 -2 3 -11
6 -20 4 -10 1 -16 -9 -16 -17 0 -40 24 -30 33 7 8 33 10 33 3z m420 -16 c0
-12 -28 -25 -36 -17 -9 9 6 27 22 27 8 0 14 -5 14 -10z m-230 -20 c0 -5 -7
-10 -16 -10 -8 0 -12 5 -9 10 3 6 10 10 16 10 5 0 9 -4 9 -10z m328 -18 c4
-25 -6 -27 -43 -10 -37 17 -32 38 8 35 24 -2 33 -8 35 -25z m-258 3 c0 -8 -7
-15 -15 -15 -16 0 -20 12 -8 23 11 12 23 8 23 -8z m450 0 c0 -19 -11 -19 -36
0 -18 14 -18 14 9 15 17 0 27 -5 27 -15z m-560 -5 c0 -5 -2 -10 -4 -10 -3 0
-8 5 -11 10 -3 6 -1 10 4 10 6 0 11 -4 11 -10z m470 -47 c0 -12 3 -13 15 -3
11 9 19 7 42 -14 15 -14 33 -26 38 -26 7 0 9 -14 7 -35 -4 -29 -1 -34 12 -29
10 4 18 0 22 -10 9 -23 41 -20 47 4 5 20 27 28 27 10 0 -5 7 -10 15 -10 8 0
15 -5 15 -11 0 -6 -7 -8 -16 -5 -10 4 -18 0 -21 -13 -3 -11 -12 -22 -20 -25
-16 -7 -102 7 -193 31 -30 8 -71 17 -90 21 -27 6 -35 12 -36 30 -1 13 8 29 20
37 28 20 39 19 33 -5 -3 -11 -1 -20 4 -20 5 0 9 6 9 14 0 8 10 22 21 30 13 9
19 21 16 30 -3 8 -1 17 6 19 17 6 27 -1 27 -20z m125 17 c11 -17 -5 -32 -21
-19 -8 6 -14 15 -14 20 0 12 27 11 35 -1z m112 -11 c7 -7 22 -12 35 -13 33 -1
35 -32 4 -40 -31 -8 -35 -26 -6 -26 11 0 20 -4 20 -10 0 -13 -36 -13 -61 0
-10 6 -19 17 -19 25 0 8 -7 15 -15 15 -18 0 -19 14 -5 41 12 21 30 25 47 8z
m2457 -37 c3 -5 18 -7 34 -4 17 2 33 -2 41 -12 15 -18 7 -36 -18 -36 -10 0
-42 -8 -72 -18 -30 -11 -78 -22 -106 -25 l-53 -6 0 31 c0 26 2 29 15 18 12
-10 16 -9 21 3 8 22 32 29 55 17 16 -9 19 -7 19 9 0 12 8 21 23 24 12 2 25 5
29 6 4 0 9 -3 12 -7z m-2884 -42 c0 -5 -5 -10 -11 -10 -5 0 -7 5 -4 10 3 6 8
10 11 10 2 0 4 -4 4 -10z m2410 -5 c10 -12 9 -20 -3 -39 -18 -27 -54 -36 -147
-36 -53 0 -69 4 -74 16 -10 25 1 33 52 33 71 1 96 6 122 24 30 21 34 21 50 2z
m-1733 -7 c7 -5 19 -8 27 -5 15 6 54 -17 75 -46 8 -11 20 -16 29 -12 10 4 27
-7 48 -30 19 -22 35 -32 39 -26 12 21 21 11 17 -19 -4 -30 -16 -39 -27 -20 -3
6 -15 10 -26 10 -16 0 -19 -6 -17 -27 3 -24 -1 -28 -22 -28 -16 0 -28 8 -35
22 -18 43 -83 34 -69 -10 4 -12 1 -23 -7 -28 -23 -14 -32 -10 -26 11 3 11 1
23 -4 26 -5 3 -9 -2 -9 -10 0 -9 -7 -16 -16 -16 -10 0 -13 6 -9 19 5 16 -1 20
-32 25 -47 7 -85 12 -120 15 -37 2 -71 27 -56 42 16 16 64 18 70 3 7 -18 27
-18 43 1 7 8 16 12 21 9 5 -3 9 2 9 10 0 11 -9 16 -29 16 -23 0 -30 5 -34 26
-2 14 0 27 7 28 6 2 24 7 41 12 44 13 98 14 112 2z m2008 -8 c0 -7 -6 -15 -12
-17 -8 -3 -13 4 -13 17 0 13 5 20 13 18 6 -3 12 -11 12 -18z m-1638 -55 c14
-10 24 -12 28 -5 9 15 22 12 29 -7 8 -21 -8 -38 -25 -27 -8 4 -28 7 -46 5 -33
-3 -38 4 -27 33 8 20 14 20 41 1z m736 -20 c1 -5 -6 -11 -15 -13 -11 -2 -18 3
-18 13 0 17 30 18 33 0z m-410 -29 c16 -12 16 -14 1 -20 -25 -10 -82 -7 -89 4
-6 10 6 14 38 11 9 -1 17 3 17 8 0 15 11 13 33 -3z m62 -6 c3 -5 -3 -10 -15
-10 -12 0 -18 5 -15 10 3 6 10 10 15 10 5 0 12 -4 15 -10z m430 -21 c8 -23 21
-25 29 -4 5 13 9 13 28 3 13 -7 31 -20 42 -28 10 -8 21 -14 24 -12 15 8 11
-17 -6 -38 -13 -16 -24 -21 -37 -16 -14 5 -16 9 -7 18 7 7 12 20 12 30 0 16
-3 17 -20 8 -34 -18 -229 -28 -249 -13 -15 12 -14 14 3 28 11 8 30 15 42 15
12 0 25 6 28 13 3 9 8 8 18 -5 13 -15 16 -14 36 7 25 26 48 24 57 -6z m-747
-5 c15 -8 25 -14 22 -15 -3 0 -14 -2 -25 -3 -59 -8 -80 -27 -49 -44 14 -8 12
-12 -12 -31 -19 -15 -31 -18 -38 -11 -5 5 -20 10 -32 10 -33 0 -39 18 -15 44
12 12 21 31 21 42 0 12 2 23 4 25 9 9 99 -4 124 -17z m140 -39 c-3 -12 -29 -8
-43 7 -7 6 -1 8 18 6 15 -2 26 -7 25 -13z m-68 -21 c0 -16 -16 -19 -25 -4 -8
13 4 32 16 25 5 -4 9 -13 9 -21z m160 0 c13 -33 13 -34 -5 -34 -14 0 -35 29
-35 49 0 22 31 10 40 -15z m130 13 c0 -21 -22 -37 -53 -37 -22 0 -28 4 -25 17
3 15 24 24 71 32 4 0 7 -5 7 -12z m95 7 c13 -5 14 -8 3 -15 -20 -13 -38 -11
-38 6 0 16 9 19 35 9z m135 -54 c0 -5 -2 -10 -4 -10 -3 0 -8 5 -11 10 -3 6 -1
10 4 10 6 0 11 -4 11 -10z m90 -7 c2 -2 -2 -8 -9 -12 -18 -12 -51 -2 -51 15 0
11 7 13 28 8 15 -4 29 -9 32 -11z m50 -3 c0 -5 -5 -10 -11 -10 -5 0 -7 5 -4
10 3 6 8 10 11 10 2 0 4 -4 4 -10z m37 4 c-3 -3 -12 -4 -19 -1 -8 3 -5 6 6 6
11 1 17 -2 13 -5z m-551 -15 c12 -20 -21 -42 -55 -34 -37 8 -39 18 -8 33 29
14 54 15 63 1z m80 0 c3 -6 0 -15 -7 -20 -18 -11 -21 -11 -39 1 -13 9 -13 11
0 20 20 13 37 13 46 -1z m-201 -9 c3 -5 -1 -10 -9 -10 -9 0 -16 5 -16 10 0 6
4 10 9 10 6 0 13 -4 16 -10z m280 0 c3 -5 -1 -10 -10 -10 -9 0 -13 5 -10 10 3
6 8 10 10 10 2 0 7 -4 10 -10z"/>
<path d="M4710 1125 c0 -19 36 -39 45 -24 4 6 -1 17 -11 24 -24 18 -34 19 -34
0z"/>
<path d="M5124 1014 c-4 -11 -9 -23 -12 -27 -2 -5 11 -7 29 -5 28 2 33 0 31
-15 -4 -24 18 -21 52 9 23 21 26 28 15 35 -8 5 -25 9 -39 9 -14 0 -35 3 -47 6
-17 5 -25 1 -29 -12z"/>
<path d="M5075 980 c3 -5 8 -10 11 -10 2 0 4 5 4 10 0 6 -5 10 -11 10 -5 0 -7
-4 -4 -10z"/>
<path d="M5670 9441 c0 -5 3 -17 6 -26 5 -12 9 -14 14 -4 5 7 6 18 3 26 -6 15
-23 18 -23 4z"/>
<path d="M5891 9371 c-8 -15 -7 -20 5 -25 27 -10 34 -7 34 19 0 30 -25 34 -39
6z"/>
<path d="M4670 9105 c0 -9 5 -15 11 -13 6 2 11 8 11 13 0 5 -5 11 -11 13 -6 2
-11 -4 -11 -13z"/>
<path d="M4254 9086 c-9 -23 7 -38 26 -26 13 8 13 11 -2 26 -16 17 -18 17 -24
0z"/>
<path d="M4320 9080 c0 -5 5 -10 11 -10 5 0 7 5 4 10 -3 6 -8 10 -11 10 -2 0
-4 -4 -4 -10z"/>
<path d="M4547 9068 c-3 -11 -14 -18 -29 -18 -13 0 -29 -5 -36 -12 -9 -9 -16
-8 -30 5 -19 17 -52 14 -52 -4 0 -5 -13 -9 -29 -9 -17 0 -33 -4 -36 -10 -4 -6
10 -8 37 -5 24 2 69 7 100 10 55 5 128 31 128 46 0 4 -11 9 -24 11 -18 4 -26
0 -29 -14z"/>
<path d="M4200 9051 c0 -5 5 -13 10 -16 6 -3 10 -2 10 4 0 5 -4 13 -10 16 -5
3 -10 2 -10 -4z"/>
<path d="M4120 9030 c0 -5 6 -10 14 -10 8 0 18 5 21 10 3 6 -3 10 -14 10 -12
0 -21 -4 -21 -10z"/>
<path d="M4245 8984 c-33 -27 -81 -33 -72 -10 7 17 -45 15 -109 -4 -36 -11
-40 -15 -36 -38 4 -22 2 -24 -14 -17 -25 10 -64 8 -80 -6 -10 -8 -18 -8 -27
-1 -9 8 -19 5 -37 -8 -20 -16 -23 -21 -12 -32 11 -11 18 -10 44 5 22 12 34 15
42 7 7 -7 3 -10 -11 -10 -21 0 -73 -39 -73 -55 0 -4 15 -4 33 -1 43 9 48 9 75
1 18 -6 22 -3 22 13 0 16 11 24 54 36 30 9 58 21 62 27 7 12 73 43 143 68 46
16 62 35 39 44 -8 2 -27 -6 -43 -19z m-91 -33 c3 -5 -1 -14 -10 -21 -11 -10
-18 -10 -27 -1 -9 9 -9 14 3 21 19 12 27 12 34 1z"/>
<path d="M4432 8964 c1 -9 9 -19 16 -22 9 -3 13 2 10 14 -1 9 -9 19 -16 22 -9
3 -13 -2 -10 -14z"/>
<path d="M3980 8960 c0 -5 5 -10 10 -10 6 0 10 5 10 10 0 6 -4 10 -10 10 -5 0
-10 -4 -10 -10z"/>
<path d="M3740 8850 c0 -13 28 -25 38 -16 3 4 0 11 -8 16 -20 13 -30 12 -30 0z"/>
<path d="M3460 8630 c0 -25 18 -25 50 0 l25 20 -37 0 c-31 0 -38 -4 -38 -20z"/>
<path d="M3409 8604 c-6 -8 -9 -17 -6 -20 8 -8 47 5 47 16 0 15 -29 19 -41 4z"/>
<path d="M3235 8450 c-3 -5 1 -10 9 -10 9 0 16 5 16 10 0 6 -4 10 -9 10 -6 0
-13 -4 -16 -10z"/>
<path d="M3170 8404 c0 -9 5 -14 12 -12 18 6 21 28 4 28 -9 0 -16 -7 -16 -16z"/>
<path d="M2824 8047 c-9 -24 6 -44 18 -22 7 11 6 21 -1 28 -7 7 -12 6 -17 -6z"/>
<path d="M2330 7439 c-7 -11 -9 -23 -6 -26 7 -7 46 26 46 39 0 17 -30 7 -40
-13z"/>
<path d="M2128 6985 c-37 -40 -50 -66 -39 -84 6 -9 16 2 33 31 58 99 59 108 6
53z"/>
<path d="M2177 6970 c-22 -26 -12 -52 18 -44 17 4 24 1 28 -13 4 -17 4 -17 12
1 6 13 3 21 -9 28 -11 6 -15 16 -11 29 8 25 -15 25 -38 -1z"/>
<path d="M2067 6862 c-16 -15 -19 -15 -27 -2 -11 18 -24 6 -35 -30 l-8 -25 23
20 22 20 -3 -24 c-6 -39 15 -34 35 9 22 45 18 58 -7 32z"/>
<path d="M1990 6660 c0 -5 5 -10 10 -10 6 0 10 5 10 10 0 6 -4 10 -10 10 -5 0
-10 -4 -10 -10z"/>
<path d="M9995 6563 c3 -10 9 -30 12 -45 7 -34 15 -35 29 -4 9 19 7 27 -12 45
-27 26 -39 27 -29 4z"/>
<path d="M10050 6440 c0 -5 5 -10 11 -10 5 0 7 5 4 10 -3 6 -8 10 -11 10 -2 0
-4 -4 -4 -10z"/>
<path d="M1870 6359 c0 -5 5 -7 10 -4 6 3 10 8 10 11 0 2 -4 4 -10 4 -5 0 -10
-5 -10 -11z"/>
<path d="M1826 6131 c-4 -7 -5 -15 -2 -18 9 -9 19 4 14 18 -4 11 -6 11 -12 0z"/>
<path d="M1977 6102 c-16 -7 -16 -10 7 -31 30 -28 59 -22 54 11 -3 24 -29 33
-61 20z"/>
<path d="M1790 5860 c0 -5 5 -10 10 -10 6 0 10 5 10 10 0 6 -4 10 -10 10 -5 0
-10 -4 -10 -10z"/>
<path d="M1808 5648 c-25 -9 -26 -12 -17 -31 10 -18 7 -25 -19 -48 -33 -29
-32 -39 4 -39 42 0 54 -11 54 -47 0 -58 17 -27 24 45 5 47 3 77 -6 98 -12 28
-16 30 -40 22z"/>
<path d="M1720 5640 c0 -5 5 -10 10 -10 6 0 10 5 10 10 0 6 -4 10 -10 10 -5 0
-10 -4 -10 -10z"/>
<path d="M1670 5590 c-13 -8 -12 -11 5 -24 11 -9 23 -16 26 -16 7 0 19 26 19
41 0 12 -31 11 -50 -1z"/>
<path d="M1680 5450 c0 -5 5 -10 10 -10 6 0 10 5 10 10 0 6 -4 10 -10 10 -5 0
-10 -4 -10 -10z"/>
<path d="M1702 5383 c5 -25 28 -28 28 -4 0 12 -6 21 -16 21 -9 0 -14 -7 -12
-17z"/>
<path d="M1634 5349 c-7 -12 15 -31 28 -23 4 3 8 12 8 20 0 17 -26 19 -36 3z"/>
<path d="M1690 5315 c0 -8 2 -15 4 -15 2 0 6 7 10 15 3 8 1 15 -4 15 -6 0 -10
-7 -10 -15z"/>
<path d="M10250 4854 c0 -8 5 -12 10 -9 6 3 10 10 10 16 0 5 -4 9 -10 9 -5 0
-10 -7 -10 -16z"/>
<path d="M1640 4805 c0 -8 7 -15 15 -15 8 0 15 7 15 15 0 8 -7 15 -15 15 -8 0
-15 -7 -15 -15z"/>
<path d="M1785 3980 c-3 -6 1 -13 10 -16 19 -8 30 0 20 15 -8 14 -22 14 -30 1z"/>
<path d="M10120 3970 c0 -22 7 -25 29 -11 16 10 6 31 -15 31 -8 0 -14 -9 -14
-20z"/>
<path d="M1870 3875 c0 -14 -4 -34 -10 -44 -9 -18 3 -29 53 -45 15 -5 16 -3 5
17 -6 12 -14 37 -17 56 -7 42 -31 54 -31 16z"/>
<path d="M1962 3623 c3 -18 48 -28 48 -12 0 5 -7 9 -15 9 -8 0 -15 5 -15 10 0
6 -5 10 -11 10 -6 0 -9 -8 -7 -17z"/>
<path d="M1916 3594 c-8 -21 -8 -21 14 -27 16 -4 19 0 18 19 -3 27 -23 32 -32
8z"/>
<path d="M1955 3520 c-3 -6 1 -13 10 -16 19 -8 30 0 20 15 -8 14 -22 14 -30 1z"/>
<path d="M1970 3431 c0 -5 5 -13 10 -16 6 -3 10 -2 10 4 0 5 -4 13 -10 16 -5
3 -10 2 -10 -4z"/>
<path d="M2028 3399 c-24 -14 -23 -28 2 -22 25 7 49 33 29 33 -8 0 -22 -5 -31
-11z"/>
<path d="M2020 3342 c0 -5 7 -16 16 -23 14 -12 16 -11 13 5 -4 20 -29 35 -29
18z"/>
<path d="M2181 3111 c-9 -16 -7 -20 15 -25 15 -4 29 -5 32 -1 3 3 0 5 -6 5 -7
0 -12 6 -12 14 0 24 -18 28 -29 7z"/>
<path d="M2457 3053 c-4 -3 -7 -11 -7 -17 0 -6 5 -5 12 2 6 6 9 14 7 17 -3 3
-9 2 -12 -2z"/>
<path d="M2200 2997 c0 -18 -7 -42 -15 -54 -14 -20 -13 -22 15 -28 16 -4 41
-20 54 -36 14 -16 27 -29 29 -29 2 0 4 15 5 34 2 47 -52 146 -80 146 -4 0 -8
-15 -8 -33z m60 -73 c0 -8 -4 -12 -10 -9 -5 3 -10 10 -10 16 0 5 5 9 10 9 6 0
10 -7 10 -16z"/>
<path d="M2365 2721 c-3 -5 -1 -12 5 -16 5 -3 10 1 10 9 0 18 -6 21 -15 7z"/>
<path d="M2390 2682 c0 -5 7 -15 15 -22 8 -7 15 -9 15 -6 0 4 -7 14 -15 22 -8
9 -15 11 -15 6z"/>
<path d="M2436 2682 c-3 -6 -1 -14 5 -17 15 -10 25 3 12 16 -7 7 -13 7 -17 1z"/>
<path d="M2486 2573 c4 -21 17 -46 31 -56 12 -10 23 -25 23 -33 0 -8 4 -14 9
-14 5 0 14 -14 21 -30 7 -17 21 -35 31 -41 11 -5 19 -16 19 -24 0 -8 9 -19 19
-25 31 -16 37 -12 13 10 -26 24 -113 158 -109 168 3 11 -46 82 -56 82 -4 0 -5
-17 -1 -37z"/>
<path d="M9390 2529 c0 -5 5 -7 10 -4 6 3 10 8 10 11 0 2 -4 4 -10 4 -5 0 -10
-5 -10 -11z"/>
<path d="M3197 1833 c-13 -12 -7 -44 9 -50 9 -3 36 -28 61 -54 25 -27 54 -49
64 -49 9 0 19 -5 21 -11 2 -7 9 -10 15 -8 12 4 -142 179 -156 179 -4 0 -11 -3
-14 -7z"/>
<path d="M7105 946 l-59 -11 26 -17 c22 -15 27 -15 32 -3 3 8 12 12 21 9 8 -3
15 -1 15 5 0 6 11 11 25 11 14 0 25 5 25 10 0 12 -6 11 -85 -4z"/>
<path d="M6990 920 c-24 -8 -23 -8 8 -9 17 -1 32 4 32 9 0 11 -5 11 -40 0z"/>
</g>
</svg>
